<svg xmlns="http://www.w3.org/2000/svg" width="225" height="225" viewBox="0 0 225 225" version="1.1"><path d="M 177.373 55.076 C 171.361 56.209, 159.722 62.340, 131 79.504 C 98.517 98.915, 60.608 120.957, 46.625 128.562 C 39.560 132.405, 34.434 135.972, 31.992 138.747 C 21.081 151.142, 27.286 168.562, 43.300 170.497 C 46.160 170.843, 77.750 170.985, 113.500 170.813 C 186.021 170.464, 181.946 170.871, 187.642 163.403 C 193.214 156.098, 191.658 142.419, 184.545 136.173 C 182.705 134.558, 175.790 131.141, 169.068 128.526 L 156.917 123.799 176.037 104.333 C 188.293 91.855, 195.840 83.364, 197.057 80.683 C 203.708 66.034, 193.018 52.127, 177.373 55.076 M 176.754 57.084 C 171.019 58.436, 164.014 62.257, 126.488 84.500 C 92.996 104.352, 57.574 124.866, 43.896 132.331 C 31.851 138.904, 26.397 147.622, 28.932 156.250 C 30.752 162.444, 35.260 166.699, 41.412 168.029 C 44.911 168.786, 67.162 169.031, 112.677 168.815 C 178.011 168.504, 178.891 168.473, 181.677 166.408 C 186.775 162.630, 189 158.278, 189 152.087 C 189 141.024, 184.482 136.538, 166.250 129.497 C 159.512 126.895, 154 124.512, 154 124.202 C 154 123.892, 163.156 114.382, 174.347 103.069 C 196.400 80.776, 197.634 78.946, 196.757 69.827 C 196.191 63.936, 191.711 58.570, 186.044 56.996 C 182.021 55.878, 181.863 55.880, 176.754 57.084 M 166.500 67.365 C 161 70.299, 147.725 77.884, 137 84.222 C 108.648 100.976, 102.997 104.431, 103.023 104.995 C 103.036 105.273, 113.049 109.455, 125.273 114.288 L 147.500 123.077 168.743 101.288 C 182.556 87.120, 190.372 78.341, 191.092 76.185 C 193.736 68.261, 189.320 61.988, 181.115 62.015 C 177.472 62.027, 174.393 63.154, 166.500 67.365 M 69 124.085 C 53.875 132.790, 39.813 141.501, 37.750 143.441 C 34.468 146.528, 34 147.543, 34 151.584 C 34 155.500, 34.515 156.715, 37.400 159.600 L 40.800 163 75.730 163 L 110.660 163 127.323 145.072 L 143.986 127.143 120.743 117.957 C 107.959 112.905, 97.275 108.655, 97 108.513 C 96.725 108.372, 84.125 115.379, 69 124.085 M 136.458 142.750 C 129.399 150.313, 122.270 157.963, 120.615 159.750 L 117.608 163 147.227 163 L 176.847 163 179.889 160.440 C 183.142 157.703, 184.665 152.786, 183.589 148.499 C 182.297 143.351, 177.888 140.196, 164.055 134.518 C 156.660 131.483, 150.313 129, 149.951 129 C 149.589 129, 143.517 135.188, 136.458 142.750 M 137.285 144.812 C 130.184 152.341, 124.038 159.063, 123.628 159.750 C 123.039 160.737, 128.478 161, 149.518 161 L 176.154 161 179.202 157.952 C 181.873 155.281, 182.183 154.402, 181.707 150.853 C 181.408 148.626, 180.169 145.744, 178.952 144.449 C 177.161 142.543, 164.253 136.475, 152.349 131.943 C 150.481 131.233, 148.493 132.931, 137.285 144.812" stroke="none" fill="#331a3b" fill-rule="evenodd"/><path d="M -0 112.504 L -0 225.009 112.750 224.754 L 225.500 224.500 225.754 112.250 L 226.009 0 113.004 0 L 0 0 -0 112.504 M 0.483 113 C 0.483 174.875, 0.603 200.188, 0.750 169.250 C 0.897 138.313, 0.897 87.688, 0.750 56.750 C 0.603 25.813, 0.483 51.125, 0.483 113 M 177.373 55.076 C 171.361 56.209, 159.722 62.340, 131 79.504 C 98.517 98.915, 60.608 120.957, 46.625 128.562 C 39.560 132.405, 34.434 135.972, 31.992 138.747 C 21.081 151.142, 27.286 168.562, 43.300 170.497 C 46.160 170.843, 77.750 170.985, 113.500 170.813 C 186.021 170.464, 181.946 170.871, 187.642 163.403 C 193.214 156.098, 191.658 142.419, 184.545 136.173 C 182.705 134.558, 175.790 131.141, 169.068 128.526 L 156.917 123.799 176.037 104.333 C 188.293 91.855, 195.840 83.364, 197.057 80.683 C 203.708 66.034, 193.018 52.127, 177.373 55.076 M 176.754 57.084 C 171.019 58.436, 164.014 62.257, 126.488 84.500 C 92.996 104.352, 57.574 124.866, 43.896 132.331 C 31.851 138.904, 26.397 147.622, 28.932 156.250 C 30.752 162.444, 35.260 166.699, 41.412 168.029 C 44.911 168.786, 67.162 169.031, 112.677 168.815 C 178.011 168.504, 178.891 168.473, 181.677 166.408 C 186.775 162.630, 189 158.278, 189 152.087 C 189 141.024, 184.482 136.538, 166.250 129.497 C 159.512 126.895, 154 124.512, 154 124.202 C 154 123.892, 163.156 114.382, 174.347 103.069 C 196.400 80.776, 197.634 78.946, 196.757 69.827 C 196.191 63.936, 191.711 58.570, 186.044 56.996 C 182.021 55.878, 181.863 55.880, 176.754 57.084 M 166.500 67.365 C 161 70.299, 147.725 77.884, 137 84.222 C 108.648 100.976, 102.997 104.431, 103.023 104.995 C 103.036 105.273, 113.049 109.455, 125.273 114.288 L 147.500 123.077 168.743 101.288 C 182.556 87.120, 190.372 78.341, 191.092 76.185 C 193.736 68.261, 189.320 61.988, 181.115 62.015 C 177.472 62.027, 174.393 63.154, 166.500 67.365 M 69 124.085 C 53.875 132.790, 39.813 141.501, 37.750 143.441 C 34.468 146.528, 34 147.543, 34 151.584 C 34 155.500, 34.515 156.715, 37.400 159.600 L 40.800 163 75.730 163 L 110.660 163 127.323 145.072 L 143.986 127.143 120.743 117.957 C 107.959 112.905, 97.275 108.655, 97 108.513 C 96.725 108.372, 84.125 115.379, 69 124.085 M 136.458 142.750 C 129.399 150.313, 122.270 157.963, 120.615 159.750 L 117.608 163 147.227 163 L 176.847 163 179.889 160.440 C 183.142 157.703, 184.665 152.786, 183.589 148.499 C 182.297 143.351, 177.888 140.196, 164.055 134.518 C 156.660 131.483, 150.313 129, 149.951 129 C 149.589 129, 143.517 135.188, 136.458 142.750 M 137.285 144.812 C 130.184 152.341, 124.038 159.063, 123.628 159.750 C 123.039 160.737, 128.478 161, 149.518 161 L 176.154 161 179.202 157.952 C 181.873 155.281, 182.183 154.402, 181.707 150.853 C 181.408 148.626, 180.169 145.744, 178.952 144.449 C 177.161 142.543, 164.253 136.475, 152.349 131.943 C 150.481 131.233, 148.493 132.931, 137.285 144.812" stroke="none" fill="#f8f7f7" fill-rule="evenodd"/></svg>